# Wavefront Obj file
# 
# verts: 61 uv-s: 106
mtllib stone7_uv.mtl

g RetopoGroup1

v -10.933002 15.993980 16.519287
v -10.892782 5.187466 16.640076
v -1.085895 5.530918 16.579193
v -1.205944 16.135326 15.819649
v -10.842910 -8.160414 10.724599
v -1.030990 -7.902771 10.106307
v -10.871140 -8.657097 10.012725
v -1.234267 -8.685440 9.281836
v -10.773210 -12.214922 -4.725819
v -1.182076 -11.201578 -6.496392
v -10.812157 -7.879022 -17.688591
v -1.064279 -7.928437 -15.570398
v -0.962126 -6.796646 -17.175278
v -11.006015 8.154796 17.730507
v -1.083139 8.238775 17.056824
v -1.091828 18.585426 13.995452
v -10.879700 18.800741 14.344666
v -1.226658 18.958942 12.198398
v -10.844404 19.555130 13.172328
v -1.204514 18.600693 -6.438255
v -10.824372 19.434841 -6.273447
v -0.957547 17.169865 -9.555258
v -10.702925 18.019009 -10.025558
v -10.643095 4.431226 -15.125397
v -0.942124 5.060130 -13.588069
v -2.284734 19.555737 -6.592282
v -2.067104 17.653278 -10.011405
v -1.997228 5.324528 -14.889352
v -2.059555 -7.186244 -17.861294
v -2.147875 -8.722267 -16.280403
v -2.314622 -11.552095 -6.300086
v -2.355747 -9.115437 9.574776
v -2.174448 -8.310638 10.668335
v -2.226954 5.229668 17.297073
v -2.228049 8.184903 17.901871
v -2.340521 16.317913 16.372604
v -2.231456 19.063078 14.374730
v -2.331822 19.679344 12.429272
v -1.735682 -1.278947 -17.144257
v -0.863121 -1.187925 -15.567206
v -10.732430 -2.224118 -17.323334
v -2.211986 -10.831322 1.865320
v -1.276794 -9.781235 1.507049
v -10.818595 -10.776665 2.839812
v -0.717424 -2.800821 -9.910304
v -10.636985 4.696929 0.894240
v -7.110227 -8.330582 -17.158585
v -7.238653 -12.246794 -5.431541
v -7.232231 -11.170197 2.488294
v -7.299027 -9.095640 9.937090
v -7.158188 -8.307932 10.800903
v -7.280350 5.089909 17.231506
v -7.357249 8.150027 18.163460
v -7.319417 16.226748 16.668938
v -7.280786 19.182949 14.558684
v -7.278292 19.889914 12.902279
v -7.174526 19.568785 -6.429811
v -7.057655 18.013201 -10.183714
v -6.968040 4.874780 -15.184992
v -6.890973 -1.789906 -17.365402
v -7.140052 -7.823411 -18.175194
# 61 positions

vt 0.627717 0.799760
vt 0.627781 0.820386
vt 0.510183 0.826043
vt 0.508806 0.807345
vt 0.889936 0.814668
vt 0.886221 0.834082
vt 0.668484 0.819546
vt 0.670933 0.799684
vt 0.317510 0.451593
vt 0.335511 0.449124
vt 0.341241 0.465234
vt 0.322160 0.471005
vt 0.336259 0.333386
vt 0.315164 0.336596
vt 0.318607 0.066775
vt 0.339970 0.072239
vt 0.329932 0.214128
vt 0.312538 0.217091
vt 0.326474 0.035801
vt 0.344904 0.043655
vt 0.466075 0.834976
vt 0.460652 0.816224
vt 0.625138 0.072123
vt 0.631002 0.053910
vt 0.657836 0.057922
vt 0.654532 0.077240
vt 0.932604 0.061305
vt 0.932090 0.082571
vt 0.930427 0.152514
vt 0.988102 0.073061
vt 0.990000 0.148671
vt 0.164479 0.359246
vt 0.160116 0.444890
vt 0.141809 0.452864
vt 0.139441 0.366762
vt 0.140228 0.070970
vt 0.158693 0.075440
vt 0.161971 0.262484
vt 0.137164 0.264940
vt 0.983300 0.053910
vt 0.065993 0.066190
vt 0.063878 0.272650
vt 0.065876 0.376286
vt 0.066436 0.465219
vt 0.248973 0.029959
vt 0.248051 0.046736
vt 0.239401 0.228649
vt 0.187637 0.239360
vt 0.194359 0.035276
vt 0.241267 0.346120
vt 0.245603 0.459589
vt 0.248589 0.476596
vt 0.892200 0.738321
vt 0.673704 0.726274
vt 0.626558 0.726062
vt 0.506959 0.735312
vt 0.454418 0.740691
vt 0.618124 0.147695
vt 0.644660 0.149386
vt 0.383357 0.181650
vt 0.468492 0.190553
vt 0.459655 0.276393
vt 0.371026 0.207727
vt 0.346890 0.347178
vt 0.423535 0.568641
vt 0.383692 0.460588
vt 0.647525 0.637722
vt 0.436771 0.579211
vt 0.798769 0.599703
vt 0.687855 0.637722
vt 0.830326 0.540202
vt 0.829630 0.567184
vt 0.563804 0.203192
vt 0.748957 0.230577
vt 0.777844 0.271913
vt 0.129091 0.934809
vt 0.039179 0.871970
vt 0.228138 0.728633
vt 0.031591 0.861741
vt 0.011384 0.648578
vt 0.010000 0.602206
vt 0.063330 0.498814
vt 0.106642 0.469895
vt 0.126463 0.464854
vt 0.396373 0.556960
vt 0.441984 0.594135
vt 0.449710 0.806844
vt 0.449320 0.909642
vt 0.428094 0.990000
vt 0.227632 0.990000
vt 0.188765 0.354625
vt 0.193325 0.466069
vt 0.194359 0.478829
vt 0.672284 0.672648
vt 0.889610 0.682744
vt 0.623960 0.672995
vt 0.505856 0.682744
vt 0.453931 0.687403
vt 0.639383 0.202012
vt 0.618513 0.201851
vt 0.929192 0.205806
vt 0.988336 0.202641
vt 0.010000 0.280044
vt 0.012038 0.065886
vt 0.010231 0.383931
vt 0.012038 0.466979
# 106 texture coordinates

vn -0.694192 0.285034 0.660949
vn -0.739685 -0.264838 0.618650
vn 0.864179 -0.153809 0.479101
vn 0.826534 0.228277 0.514520
vn -0.678386 -0.440168 0.588256
vn 0.848017 -0.343317 0.403733
vn -0.712754 -0.613549 0.339911
vn 0.827492 -0.514134 0.225662
vn -0.675752 -0.736155 -0.037889
vn 0.834473 -0.547923 -0.058608
vn -0.629689 -0.432914 -0.645040
vn 0.856489 -0.465131 -0.223784
vn 0.883076 -0.180981 -0.432923
vn -0.706459 -0.061845 0.705047
vn 0.859399 0.007244 0.511254
vn 0.819876 0.477305 0.316201
vn -0.711023 0.541968 0.448014
vn 0.864270 0.500111 0.054102
vn -0.672147 0.720103 0.172250
vn 0.866296 0.487898 -0.107175
vn -0.696909 0.702110 -0.146150
vn 0.872409 0.338288 -0.352795
vn -0.638776 0.538122 -0.549900
vn -0.717438 0.234861 -0.655838
vn 0.930807 0.135965 -0.339282
vn 0.312299 0.925849 -0.212777
vn 0.352842 0.640829 -0.681792
vn 0.418866 0.311389 -0.852988
vn 0.406361 -0.349009 -0.844431
vn 0.313074 -0.845325 -0.432908
vn 0.312623 -0.945550 -0.090565
vn 0.285117 -0.866824 0.409052
vn 0.275580 -0.610308 0.742684
vn 0.293925 -0.317035 0.901719
vn 0.300216 -0.019390 0.953674
vn 0.268542 0.379044 0.885557
vn 0.275740 0.779165 0.562911
vn 0.297542 0.945036 0.135561
vn 0.438635 0.206826 -0.874541
vn 0.942881 0.083026 -0.322618
vn -0.701805 0.151493 -0.696075
vn 0.352780 -0.922625 0.155917
vn 0.877153 -0.474136 0.076145
vn -0.724124 -0.673357 0.149115
vn 0.999841 -0.017312 -0.004367
vn -0.999976 -0.000032 -0.006973
vn 0.003391 -0.902557 -0.430557
vn 0.011826 -0.995773 -0.091088
vn 0.011293 -0.980191 0.197730
vn -0.020996 -0.889997 0.455484
vn -0.028074 -0.616865 0.786568
vn -0.049483 -0.357058 0.932770
vn -0.037982 -0.055517 0.997735
vn -0.021285 0.393806 0.918947
vn -0.020628 0.779939 0.625516
vn -0.018486 0.980248 0.196906
vn -0.010548 0.977634 -0.210049
vn -0.001794 0.689455 -0.724326
vn -0.010240 0.336267 -0.941711
vn -0.015828 0.215926 -0.976281
vn 0.001054 -0.430811 -0.902441
# 61 normals

usemtl Default
f 35/1/35 15/2/15 4/3/4 36/4/36
f 33/5/33 6/6/6 3/7/3 34/8/34
f 32/9/32 8/10/8 6/11/6 33/12/33
f 43/13/43 8/10/8 32/9/32 42/14/42
f 30/15/30 12/16/12 10/17/10 31/18/31
f 29/19/29 13/20/13 12/16/12 30/15/30
f 34/8/34 3/7/3 15/2/15 35/1/35
f 36/4/36 4/3/4 16/21/16 37/22/37
f 37/23/37 16/24/16 18/25/18 38/26/38
f 38/26/38 18/25/18 20/27/20 26/28/26
f 57/29/57 26/28/26 27/30/27 58/31/58
f 40/32/40 13/33/13 29/34/29 39/35/39
f 27/36/27 22/37/22 25/38/25 28/39/28
f 26/28/26 20/27/20 22/40/22 27/30/27
f 58/41/58 27/36/27 28/39/28 59/42/59
f 60/43/60 39/35/39 29/34/29 61/44/61
f 61/45/61 29/19/29 30/15/30 47/46/47
f 48/47/48 9/48/9 11/49/11 47/46/47
f 49/50/49 42/14/42 32/9/32 50/51/50
f 50/51/50 32/9/32 33/12/33 51/52/51
f 51/53/51 33/5/33 34/8/34 52/54/52
f 52/54/52 34/8/34 35/1/35 53/55/53
f 53/55/53 35/1/35 36/4/36 54/56/54
f 54/56/54 36/4/36 37/22/37 55/57/55
f 55/58/55 37/23/37 38/26/38 56/59/56
f 56/59/56 38/26/38 26/28/26 57/29/57
f 39/35/39 28/39/28 25/38/25 40/32/40
f 59/42/59 28/39/28 39/35/39 60/43/60
f 42/14/42 31/18/31 10/17/10 43/13/43
f 48/47/48 31/18/31 42/14/42 49/50/49
f 13/60/13 40/61/40 45/62/45 12/63/12
f 12/63/12 45/62/45 10/64/10
f 10/64/10 45/62/45 8/65/8 43/66/43
f 8/65/8 45/62/45 3/67/3 6/68/6
f 3/67/3 45/62/45 4/69/4 15/70/15
f 4/69/4 45/62/45 18/71/18 16/72/16
f 25/73/25 18/71/18 45/62/45
f 18/71/18 25/73/25 22/74/22 20/75/20
f 45/62/45 40/61/40 25/73/25
f 44/76/44 7/77/7 46/78/46
f 7/77/7 5/79/5 46/78/46
f 5/79/5 2/80/2 46/78/46
f 2/80/2 14/81/14 46/78/46
f 14/81/14 1/82/1 46/78/46
f 1/82/1 17/83/17 46/78/46
f 17/83/17 19/84/19 46/78/46
f 19/84/19 21/85/21 46/78/46
f 21/85/21 23/86/23 46/78/46
f 23/86/23 24/87/24 46/78/46
f 24/87/24 41/88/41 46/78/46
f 41/88/41 11/89/11 46/78/46
f 11/89/11 9/90/9 46/78/46
f 9/90/9 44/76/44 46/78/46
f 47/46/47 30/15/30 31/18/31 48/47/48
f 49/50/49 44/91/44 9/48/9 48/47/48
f 50/51/50 7/92/7 44/91/44 49/50/49
f 51/52/51 5/93/5 7/92/7 50/51/50
f 52/54/52 2/94/2 5/95/5 51/53/51
f 53/55/53 14/96/14 2/94/2 52/54/52
f 54/56/54 1/97/1 14/96/14 53/55/53
f 55/57/55 17/98/17 1/97/1 54/56/54
f 56/59/56 19/99/19 17/100/17 55/58/55
f 57/29/57 21/101/21 19/99/19 56/59/56
f 58/31/58 23/102/23 21/101/21 57/29/57
f 59/42/59 24/103/24 23/104/23 58/41/58
f 60/43/60 41/105/41 24/103/24 59/42/59
f 61/44/61 11/106/11 41/105/41 60/43/60
f 47/46/47 11/49/11 61/45/61

# 68 faces
